# xmcd
#
# Track frame offsets: 
#        150
#        14370
#        32960
#        62189
#        97435
#        119105
#        145740
#        163801
#        188196
#        216292
#        238140
#
# Disc length: 3434 seconds
#
# Revision: 2
# Processed by: cddbd v1.5.2PL0 Copyright (c) Steve Scherf et al.
# Submitted via: ExactAudioCopy v0.95b2
#
DISCID=b00d680b
DTITLE=Various Artist - Café Del Mar - Volumen Ocho
DYEAR=2001
DGENRE=Ambient
TTITLE0=Goldfrapp - Utopia (New Ears Mix)
TTITLE1=Thomas Newman - Any Other Name
TTITLE2=Afterlife - Sunrise (DJ Thunda and The K-20 Allstars Remix)
TTITLE3=Dido - Worthless
TTITLE4=Mari Boine - Gula Gula (Chilluminati Mix)
TTITLE5=Mark De Clive-Lowe - Day By Day (DJ Spinna Remix Edit)
TTITLE6=Ben Onono - Tatouage Bleu (Avec Chet)
TTITLE7=Illumination - Cookie Raver
TTITLE8=Digby Jones - Pina Colada (Jazz Mix)
TTITLE9=Scripture - Apache
TTITLE10=Lamb - Gabriel
EXTD=
EXTT0=
EXTT1=
EXTT2=
EXTT3=
EXTT4=
EXTT5=
EXTT6=
EXTT7=
EXTT8=
EXTT9=
EXTT10=
PLAYORDER=
